<svg id="Layer_1" data-name="Layer 1" xmlns="http://www.w3.org/2000/svg" width="140" height="129" viewBox="0 0 140 129"><title>i1</title><path d="M66.9,92.6c-6.1,0-12.3-.2-18.4,0-4.6.2-7.2-3.5-6.1-8s1.9-7.1,3.9-10.2a19.9,19.9,0,0,1,9.2-8.5L58,64.8c1.2-.5,1.2-1.2.6-2.2a27,27,0,0,1-3-5.5,17.3,17.3,0,0,1,0-11,14.9,14.9,0,0,1,4.9-7.4,10.8,10.8,0,0,1,11.6-1.2c4.7,2.5,6.7,6.6,7.4,11.6a18,18,0,0,1-1.4,10.2,10,10,0,0,1-1.7,2.8c-1.5,1.9-1.4,2.6.8,3.4A19.1,19.1,0,0,1,85,71.1a25.1,25.1,0,0,1,5,8.5,62.9,62.9,0,0,1,1.7,6.2c.8,3.9-1.6,6.7-5.6,6.8Zm.2-3.4H85.2c2.5,0,3.4-1,2.8-3.5A41.7,41.7,0,0,0,86.2,80,19.4,19.4,0,0,0,72.3,67.6a3.8,3.8,0,0,1-1.6-1.2,3.3,3.3,0,0,1,1-4.5A13.7,13.7,0,0,0,73.2,43c-2.7-3.3-6.5-4.4-10.3-1.6s-6,12.2-2.6,17.5c.8,1.4,2.1,2.4,3,3.7a3.3,3.3,0,0,1-2,5.1,17.3,17.3,0,0,0-8,4c-4.1,3.4-5.9,8.1-7.2,13s0,4.5,3.6,4.5Z" style="fill:#dd861c"/><path d="M19.7,79.6a26.3,26.3,0,0,1-1.2-3.1,38.9,38.9,0,0,1-2-8.7,26.4,26.4,0,0,1-.2-2.9V61.8c.1-1,.2-2.2.3-3.4a21.5,21.5,0,0,1,.5-3.4,46,46,0,0,1,2-7,42.7,42.7,0,0,1,3.3-6.8A46.1,46.1,0,0,1,26.8,35,41.6,41.6,0,0,1,32,29.9,37.2,37.2,0,0,1,37.5,26a35,35,0,0,1,5.4-2.8,38.3,38.3,0,0,1,8.6-2.4,21.2,21.2,0,0,1,3.4-.4l-3,1.4a49.7,49.7,0,0,0-7.6,4.1l-4.5,3.3-1.2,1-1.1,1-2.3,2.1A53.6,53.6,0,0,0,27,43.9a48.7,48.7,0,0,0-3.1,6,51.9,51.9,0,0,0-2.3,6.2c-.3,1-.5,2.1-.8,3.1l-.6,2.9a25.4,25.4,0,0,1-.4,2.9q-.2,1.5-.3,2.7a81,81,0,0,0,0,8.6c.1,2.1.2,3.3.2,3.3Zm0,0" style="fill:#4dae43;stroke:#4dae43;stroke-linecap:round;stroke-linejoin:round;stroke-width:2.128671646118164px"/><path d="M103,96.6a23.9,23.9,0,0,1-2,3.1c-.7.9-1.5,2-2.6,3.2l-1.7,1.9-2.2,1.9a42.4,42.4,0,0,1-11.7,7.2,59.4,59.4,0,0,1-7.5,2.3,69.9,69.9,0,0,1-8,1,54.2,54.2,0,0,1-8.1-.5,44.5,44.5,0,0,1-7.6-1.9,37.5,37.5,0,0,1-6.7-2.9,27.2,27.2,0,0,1-5.5-3.5,29.8,29.8,0,0,1-4.1-3.5,24.4,24.4,0,0,1-2.8-3.1,14.5,14.5,0,0,1-1.6-2.1l-.5-.8.7.5,2.1,1.6,3.3,2.3,4.5,2.6c1.7.8,3.5,1.7,5.5,2.5s4.1,1.4,6.4,2a52.3,52.3,0,0,0,6.9,1.2,59.4,59.4,0,0,0,7.3.3,56.6,56.6,0,0,0,7.2-.7,69.6,69.6,0,0,0,6.9-1.7,50,50,0,0,0,6.2-2.4c1.9-.9,3.7-1.8,5.4-2.8l2.2-1.4,2.1-1.5,3.2-2.4,2.7-2.4Zm0,0" style="fill:#4dae43;stroke:#4dae43;stroke-linecap:round;stroke-linejoin:round;stroke-width:2.128671646118164px"/><path d="M73.6,19.8h.9l2.6.2a37.9,37.9,0,0,1,9.1,2.1A40.8,40.8,0,0,1,98,28.7a30.7,30.7,0,0,1,2.9,2.4,24,24,0,0,1,2.7,2.8,41.9,41.9,0,0,1,4.8,6.3,43.1,43.1,0,0,1,3.6,7.1c.5,1.2.9,2.4,1.3,3.7a23.7,23.7,0,0,1,.9,3.6,42.2,42.2,0,0,1,.7,13.5,36.1,36.1,0,0,1-2.1,9.1,26.6,26.6,0,0,1-1.4,3.3s.2-1.3.4-3.5.1-2.4.2-3.9,0-3.3-.1-5.1-.4-3.8-.7-5.9-.9-4.2-1.5-6.3-.7-2.2-1.1-3.3-.8-2.1-1.3-3.2a54.9,54.9,0,0,0-3.4-6.3,46.7,46.7,0,0,0-4.1-5.8l-2.4-2.6c-.7-.8-1.6-1.6-2.4-2.4a48.2,48.2,0,0,0-5.1-4.1A58.1,58.1,0,0,0,85,24.9a48.3,48.3,0,0,0-4.5-2.3L76.9,21l-2.5-.9Zm0,0" style="fill:#4dae43;stroke:#4dae43;stroke-linecap:round;stroke-linejoin:round;stroke-width:2.128671646118164px"/><path d="M101.6,73.9,108,87.4a2.7,2.7,0,0,0,4.4.7L123,77a2.7,2.7,0,0,0-1.6-4.5l-17-2.4a2.7,2.7,0,0,0-2.8,3.8Zm0,0" style="fill:#dd861c;opacity:0.8"/><path d="M38.8,95.8l-13.9-4a2,2,0,0,0-2.6,2.1l1.3,14.8a2,2,0,0,0,3.3,1.4L39.5,99.3a2.1,2.1,0,0,0-.7-3.5Zm0,0" style="fill:#dd861c;opacity:0.8"/><path d="M55.7,30,64,19a2,2,0,0,0-1.1-3.2L49.3,11.9a2.1,2.1,0,0,0-2.5,2.7l5.4,14.9a2,2,0,0,0,3.5.5Zm0,0" style="fill:#dd861c;opacity:0.8"/></svg>