<svg id="Layer_1" data-name="Layer 1" xmlns="http://www.w3.org/2000/svg" width="140" height="129" viewBox="0 0 140 129"><title>i2</title><path d="M72.8,105.6h28.4c2.4,0,4.8.1,7.1-.9,4-1.6,5.9-4.7,6.5-8.8.3-2.2.3-2.3,2.5-2.3s4.1-.1,6.2.1a2.4,2.4,0,0,1,1.9,1.2,6.2,6.2,0,0,1-.3,3.3c-.1.3-1,.6-1.4.5-2.9-.5-4.2,1.3-5.3,3.4-2.6,5-6.7,7.9-12.2,8.1-9,.4-18,.3-27,.4l-36.1.3c-3.1,0-6.1-.8-7.8-3.7a8.1,8.1,0,0,1-1.5-5.6,3.7,3.7,0,0,0-2.5-4.3c-4.5-1.9-6.2-5.5-6.4-10.1-.1-2.5-.4-2.8-2.9-3.3a9.4,9.4,0,0,1-7.3-12c.7-2.2,2.5-3.6,4.5-4.7a6.9,6.9,0,0,0,4-6.1c.1-2.5.4-5,2.8-6.5a13.1,13.1,0,0,1,4.7-1.6c2.6-.3,5.3-.1,8-.2,6.7,0,13.3.1,19.9-.2a61,61,0,0,0,9.5-1.7c1.8-.4,2.2-1.6,1.3-3.1s-2.3-4.3-3.3-6.5c-2.1-4.6-2.2-9.5-1.9-14.4s6.5-9.4,11.2-8.4a8.9,8.9,0,0,1,5.4,3C84,25.2,87,29.1,90,33a21,21,0,0,0,11,7.5c1.6.5,3.4.7,5,1.1a13.6,13.6,0,0,1,8.2,6.2c1.4,2.3,2.5,4.7,3.8,7a5.2,5.2,0,0,0,4.9,2.6c2.5.1,3.1.8,2.8,3.2a2,2,0,0,1-2.2,1.9q-3.4-.2-6.9,0a2.2,2.2,0,0,1-2.1-1.5l-3.9-8.2c-2.1-4.4-5.5-6.7-10.3-7.6A22,22,0,0,1,86.4,37c-2.4-3.2-4.6-6.5-7-9.7a9.5,9.5,0,0,0-1.9-2.1,4.6,4.6,0,0,0-5.8-1A5.3,5.3,0,0,0,68.8,29a23.6,23.6,0,0,0,5.8,15.8A39.5,39.5,0,0,1,80.9,55a29.2,29.2,0,0,0,9.5,12c2.9,2.1,6,3.8,9,5.6l4.1,2.3a3.3,3.3,0,0,1,.5,1.5,3.6,3.6,0,0,1-1.4.2A35.9,35.9,0,0,1,81.7,63.4c-.5-.6-.9-1.4-1.4-2s-1-.7-1.4-.6-.6.8-.8,1.3a9.1,9.1,0,0,0-.1,1.7c0,7-.1,14.1-.2,21.1,0,2,0,4.1-.1,6.2a6.7,6.7,0,0,1-.5,1.9c-.2.5-.7.8-1.1,1.2s-.9-.9-.9-1.4q-.3-4-.3-8.1c-.2-9.4-.3-18.9-.5-28.4-.1-1.9-.7-2.4-2.4-1.6a24.8,24.8,0,0,1-9.3,1.8H37.6a40.7,40.7,0,0,0-6.1.8,4.5,4.5,0,0,0-3.2,2.9,2.6,2.6,0,0,0,1.9,3.6,35.2,35.2,0,0,0,6.5,1l26.1.3h1.5c1,0,1.5.6,1.6,1.6.3,3.4.1,3.6-3.3,3.6h-32a32.8,32.8,0,0,0-6.3.4,11.8,11.8,0,0,0-4.1,1.9,2.5,2.5,0,0,0-.9,3,4,4,0,0,0,3.2,2.4l7.1.4H64c1.7,0,1.9.1,1.9,1.9-.1,4,.5,3.5-3.5,3.5H36.7a7.2,7.2,0,0,0-5.9,2.8c-1.4,2-.6,3.7,1.4,4.5a9.4,9.4,0,0,0,4.1.8c8.1.2,16.3.2,24.5.3a25.6,25.6,0,0,1,3.9.3c.3,0,1,.3,1,.6a16.3,16.3,0,0,1-.1,3.8c0,.3-1,.6-1.5.6-6.5.2-13.1.3-19.6.3a6,6,0,0,0-5.3,3,2.1,2.1,0,0,0,.5,3.2,6.4,6.4,0,0,0,3.2,1.3c5.1.2,10.2.2,15.3.2H72.8Z" style="fill:#dd861c"/></svg>