<svg id="Layer_1" data-name="Layer 1" xmlns="http://www.w3.org/2000/svg" width="140" height="129" viewBox="0 0 140 129"><title>i3</title><path d="M44,46.6c-.1-.9-.2-1.5-.2-2,0-3.3.1-6.5,0-9.8,0-1.8-.3-2.1-2.1-2.2h-.5c-2.7,0-2.9.2-2.9,2.9,0,4.5,0,9,.1,13.6A4.2,4.2,0,0,1,37,52.4L26.3,62.7c-.3.3-.4.8-.7,1.1s.9.6,1.3.6h5.8c1.4-.1,1.8.5,1.8,1.9v44c0,1.9-.2,2-2,2.1s-2.1-.1-3.1,0-1.6-.5-1.6-1.7c0-12.1.1-24.2.1-36.2,0-3.5,0-3.4-3.5-3.5a12.1,12.1,0,0,1-5.6-.8,5,5,0,0,1-1.6-7.3c2.6-3,5.5-5.7,8.3-8.6s3.7-3.6,5.5-5.5a3.5,3.5,0,0,0,.7-2.3c.1-6.2,0-12.3,0-18.4,0-2,.1-2.1,2.1-2.1H48.4c1.9,0,2.1.2,2.1,2.1a12.2,12.2,0,0,0,.6,2.6,13.5,13.5,0,0,0,2.2-1.4c4.1-3.6,8-7.4,12.2-10.9s6.1-2.5,9,.3l27,25.8,19.9,18.9a6.9,6.9,0,0,1,2.4,5.1c-.1,2.5-2.1,4.4-5,4.5l-4.8-.2c-2.3-.1-2.7.2-2.7,2.5,0,11.5.1,23,.1,34.5,0,2.6-.1,2.6-2.6,2.6-4.9,0-4,.1-4.1-4v-41c0-.9.2-1.3,1.1-1.2h5.9a4.7,4.7,0,0,0,1.6-.4,4.6,4.6,0,0,0-.7-1.6l-25.1-24L71.1,24.3a1.5,1.5,0,0,0-2.3,0c-2.7,2.6-5.5,5.1-8.4,7.6s-6.4,5.7-9.6,8.5l-5.3,4.9Z" style="fill:#dd861c"/><path d="M53.4,86l1.8,1.1,7.4,7.4c1.3,1.3,1.7,1.3,2.8-.2L78,76c1.9-2.8,3.7-5.6,5.7-8.3s2.6-2.3,4.8-.7l2.3,1.5a2.3,2.3,0,0,1,.6,3.4L81.3,86.6l-8.7,13c-1.4,2.2-2.8,4.3-4.4,6.4s-3.5,2.7-5.8.5-5.4-5.3-8.1-7.9l-5.2-5.3a2.4,2.4,0,0,1-.1-3.8,26.1,26.1,0,0,1,2.4-2.3A9.6,9.6,0,0,1,53.4,86Z" style="fill:#4dae43"/><rect x="60.3" y="40.5" width="8.5" height="10.23" style="fill:#dd861c"/><rect x="71.2" y="40.5" width="8.5" height="10.23" style="fill:#dd861c"/><rect x="71.2" y="53.3" width="8.5" height="10.23" style="fill:#dd861c"/><rect x="60.3" y="53.3" width="8.5" height="10.23" style="fill:#dd861c"/></svg>